<?xml version="1.0" encoding="UTF-8"?>
<svg viewBox="0 0 180.09 45" xmlns="http://www.w3.org/2000/svg">
<defs>
<style>.cls-1 {
        fill: #df9a2b;
        fill-rule: evenodd;
      }</style>
</defs>
<path class="cls-1" transform="translate(-375.97 -17.969)" d="m390.76 37.861v1.992h15.42v-1.992h-15.42zm0-12.154h15.42v1.993h-15.42v-1.992zm7.71-7.729a22.5 22.5 0 0 1 7.731 43.622l-0.03 0.011-0.031 0.011-0.03 0.011-0.091 0.032-0.062 0.022-0.03 0.011-0.031 0.011h-0.012l-0.019 6e-3 -0.03 0.011-0.093 0.033-0.06 0.02-0.03 0.011-0.031 0.011-0.062 0.02-0.027 9e-3 -0.155 0.05-0.019 6e-3h-0.012l-0.156 0.049h-0.01l-0.021 7e-3 -0.168 0.058-0.03 9e-3 -0.15 0.044h-7e-3c-0.115 0.034-0.23 0.066-0.346 0.1h-9e-3l-0.181 0.05v-19.936h1.991v17.122a20.438 20.438 0 1 0-15.375 0.081v-17.2h1.992v19.987l-0.064-0.016-0.031-8e-3 -0.064-0.016-0.031-8e-3 -0.032-8e-3 -0.032-9e-3 -0.031-8e-3 -0.032-9e-3 -0.031-9e-3 -0.063-0.017-0.032-8e-3 -0.031-9e-3 -0.032-8e-3 -0.031-9e-3 -0.038-0.015-0.062-0.018-0.032-9e-3 -0.031-9e-3 -0.061-0.018-0.124-0.036-0.03-0.01-0.054-0.017h-8e-3l-0.031-0.01-0.031-9e-3 -0.031-0.01-0.063-0.019-0.124-0.04-0.061-0.02-0.062-0.02-0.065-0.021-0.059-0.019-0.031-0.01-0.03-0.011-0.093-0.033-0.03-0.011-0.031-0.01-0.031-0.011-0.03-0.011-0.095-0.028-0.031-0.011-0.03-0.011-0.031-0.011a22.493 22.493 0 0 1 7.558-43.678zm1.331 44.942q-0.663 0.038-1.334 0.039-0.571 0-1.135-0.028h-0.03-0.031-0.032-0.031-0.024-8e-3 -0.031-9e-3 -0.022-0.032-0.031-0.032-0.03-0.031-0.032-0.031-0.029-0.02-0.011-0.031-7e-3 -0.056-0.031l-0.108-8e-3h-0.017-0.031-0.03-0.032-0.031-0.027-0.021-0.01-0.031-0.031-0.026-0.031-0.012-0.02-0.029-0.031-0.015-0.016l-0.081-8e-3h-0.012-0.031l-0.057-6e-3h-0.031-9e-3 -0.022-0.026-0.031-0.031-0.03-0.03-0.017-0.014l-0.062-7e-3h-0.02-0.011-0.031-6e-3 -0.025-0.023-7e-3 -0.031-0.01-0.021l-0.061-8e-3h-0.014-0.017-0.031v-20.627h1.992v18.626q0.564 0.031 1.135 0.031 0.672 0 1.334-0.043v-18.614h1.971v20.447c-0.255 0.037-0.51 0.071-0.767 0.1h-0.031-0.016-0.015l-0.124 0.014h-0.015-0.017l-0.087 9e-3h-6e-3 -0.045-0.017-0.031-0.028-0.024-7e-3 -0.031-0.013-0.018-0.032-0.029-0.023-0.024-0.032-0.012-0.019-0.031-0.029-0.022-0.01-0.031-0.014-0.021-0.031-0.031-0.021-0.011-0.062-0.032-0.031-0.032-0.031-0.01-0.022-0.03-0.032zm-12.428-33.228h22.194v1.993h-22.194v-1.993zm23 8.169a1.441 1.441 0 1 0 1.282-2.093h-26.373a1.436 1.436 0 1 0 1.007 2.464 1.453 1.453 0 0 0 0.275-0.372h2.079a3.423 3.423 0 0 1-5.782 1.768 3.421 3.421 0 0 1 0-4.84 3.416 3.416 0 0 1 2.421-1h26.376a3.412 3.412 0 0 1 2.42 1 3.421 3.421 0 0 1 0 4.84 3.424 3.424 0 0 1-5.781-1.768h2.079z"/>
<path class="cls-1" transform="translate(-375.97 -17.969)" d="M446.981,47.443a4.433,4.433,0,0,1-1.165.134h-2.009V33.086h-5.479v15.2h8.723a1.606,1.606,0,0,0,.822-0.15,0.42,0.42,0,0,0,.231-0.344,0.469,0.469,0,0,0-.57-0.483A4.539,4.539,0,0,0,446.981,47.443Zm10.36-1.069,0.891,1.912h5.6L456.481,32.4l-5.36,13.02a3.159,3.159,0,0,0-.752-0.108,0.435,0.435,0,0,0-.526.451q0,0.451.924,0.537a6.327,6.327,0,0,1-.634,1.182,0.944,0.944,0,0,0-.2.526,0.38,0.38,0,0,0,.129.269,0.448,0.448,0,0,0,.333.129,0.807,0.807,0,0,0,.687-0.666q0.119-.344.258-0.655l0.311-.741q0.72,0.032,2.686.032h3.008ZM454.3,39.8l2.685,5.79h-3.147q-0.818,0-1.848-.086Zm32.1-6.832a0.527,0.527,0,0,0-.521.483l-0.182.655q-0.1.344-.236,0.7l-2.686,6.306L478.963,32.4l-4.092,8.733-3.019-8.046h-5.887l6.36,15.791,4.2-9.045,4.05,9.045,5.693-13.825q0.2-.516.462-1.214a1.36,1.36,0,0,0,.075-0.4A0.39,0.39,0,0,0,486.4,32.968ZM506.149,38.1q0-.429-0.58-0.43l-1.332.054h-2.159V33.86H504.9a6.278,6.278,0,0,1,1.289.107,2.622,2.622,0,0,0,.537.054,0.427,0.427,0,0,0,.317-0.156,0.486,0.486,0,0,0,.145-0.338q0-.473-0.8-0.473h-0.194l-1.063.032H496.6v15.2h5.478V38.5h2.406c0.244,0,.444.007,0.6,0.021l0.44,0.011h0C505.942,38.532,506.149,38.389,506.149,38.1Zm3.587,10.184h5.479v-15.2h-5.479v15.2Zm16.993-4.748a0.479,0.479,0,0,0,.156.333,0.81,0.81,0,0,0,.585.161l0.258-.011A1.3,1.3,0,0,1,527.98,44a0.359,0.359,0,0,1,.2.043,0.574,0.574,0,0,1,.135.225l0.311,0.763a5.8,5.8,0,0,0,2.138,2.922,3.129,3.129,0,0,0,1.772.537q1.332,0,1.332-.569a0.356,0.356,0,0,0-.4-0.408l-0.849.2a2.6,2.6,0,0,1-.945-0.183q-1.547-.6-2.546-3.7a5.742,5.742,0,0,0,3.352-1.955,5.21,5.21,0,0,0,1.224-3.416,4.778,4.778,0,0,0-1.321-3.373,5.416,5.416,0,0,0-1.461-1.117,5.985,5.985,0,0,0-1.713-.612q-0.865-.161-1.338-0.2-0.323-.021-0.693-0.038t-0.843-.027q-0.472-.011-2.03-0.011h-4.071v15.2h5.478V33.87c0.115-.007.247-0.011,0.4-0.011h0.73q0.516,0,1.117.054a6.469,6.469,0,0,1,2.664.795,4.088,4.088,0,0,1,2.267,3.824,4.465,4.465,0,0,1-1.321,3.287,4.373,4.373,0,0,1-3.212,1.321l-0.881-.064q-0.753,0-.752.462h0Zm9.473,4.909a0.707,0.707,0,0,0,.709-0.634q0.1-.3.247-0.849a9.4,9.4,0,0,1,.5-1.332l1.5-4.694,4.34,7.734,4.125-8.594,2.664,8.207h5.768L550.554,32.4l-4.609,9.174L541.2,32.4l-4.415,13.224-0.408.945c-0.05.115-.1,0.218-0.145,0.311s-0.12.233-.22,0.419a1.894,1.894,0,0,0-.2.612,0.511,0.511,0,0,0,.086.354,0.4,0.4,0,0,0,.311.183h0Z" data-name="Law Firm"/>
</svg>
